<svg height='300px' width='300px'  fill="#000000" xmlns="http://www.w3.org/2000/svg" xmlns:xlink="http://www.w3.org/1999/xlink" xmlns:sketch="http://www.bohemiancoding.com/sketch/ns" viewBox="0 0 100 100" version="1.1" x="0px" y="0px"><title>11</title><desc>Created with Sketch.</desc><g stroke="none" stroke-width="1" fill="none" fill-rule="evenodd" sketch:type="MSPage"><path d="M74.3032307,52.9050795 C73.1740341,47.5034589 70.1690897,43.3957233 65.3724222,40.6955207 C60.5733367,37.9934949 55.256199,37.4264706 51.6407146,37.4264706 C48.9591749,37.4264706 46.3380848,37.740066 44.0615567,38.333831 C38.6773201,39.7371098 33.7948143,43.5434049 30.9996296,48.5165666 C28.8427916,52.3544643 28.2389011,56.4488295 29.3003943,60.0448454 C29.3813966,60.3207608 29.3324325,60.6276711 29.1661964,60.8859619 C28.8699938,61.3472389 28.4238766,61.9732143 27.9088469,62.6976441 C26.5209264,64.6472839 24.7938843,67.0740021 24.1603736,68.8133628 C23.9058812,69.5128752 23.9560543,70.2926095 24.2981984,70.9532263 C24.6403426,71.6132353 25.2472555,72.101253 25.9508877,72.2884379 C26.0935485,72.3315876 26.7705828,72.5917017 27.1350933,72.7314826 C27.5153206,72.8773409 27.8447704,73.0019283 27.9318177,73.0298845 C28.8760388,73.3319328 28.8240522,77.2786164 28.793223,79.6366597 C28.7847601,80.2425795 28.7769016,80.8539691 28.7769016,81.457458 C28.7769016,84.563633 30.7838249,86.4184649 34.1436079,86.4184649 C35.097501,86.4184649 35.9468164,86.2768607 36.4914663,86.1577431 C36.9454421,86.058681 37.3951863,86.0058073 37.7923395,86.0058073 C39.406341,86.0058073 40.0646361,86.7429997 40.0646361,88.5498199 C40.0646361,89.0973965 40.0803529,89.5920993 40.1099732,90.0217737 C40.2012519,91.3278136 41.0493584,92.4776636 42.2716472,92.9517032 C43.2424661,93.3272884 46.847674,94.5543217 52.4676637,94.5543217 C57.0358321,94.5543217 61.6179039,93.739946 66.0857262,92.1342887 C66.7137965,91.9082083 67.2173408,91.4207983 67.4657882,90.7966462 C67.7154446,90.170063 67.6870334,89.4656888 67.3859949,88.8628076 C66.5928975,87.2778136 64.7364935,83.5657188 66.0270902,78.5184124 C66.5729492,76.3840186 67.906465,74.5844913 69.4497407,72.5005402 C72.5598673,68.3016432 76.431053,63.0756603 74.3032307,52.9050795 L74.3032307,52.9050795 Z M53.6523495,27.6337271 L53.4654107,27.6337271 C51.9736068,27.6337271 50.7645944,28.8497684 50.7645944,30.3495882 C50.7645944,31.8494079 51.9736068,33.0649168 53.4654107,33.0649168 L53.6523495,33.0649168 C55.1441534,33.0649168 56.3536954,31.8494079 56.3536954,30.3495882 C56.3536954,28.8497684 55.1441534,27.6337271 53.6523495,27.6337271 L53.6523495,27.6337271 Z M60.1014752,7.11223188 C56.6905031,4.63489384 51.2544483,4.21215444 47.6618331,6.51060025 C46.1832685,7.45670592 45.143719,8.82129165 44.5431846,10.6043574 C43.9633034,12.3251304 45.2851147,14.102872 47.0920138,14.102872 C48.2173539,14.102872 49.2701427,13.4261695 49.6392542,12.3570754 C49.7870048,11.9300767 49.9898308,11.509467 50.2477323,11.0963111 C51.2682172,9.4665815 53.8774176,9.12530197 55.4359474,10.1028203 C57.3620002,11.3114077 57.6638561,13.8978913 56.4315425,15.7006565 C56.1572243,16.1015668 55.7960563,16.4710645 55.3501568,16.8091495 L53.9891572,17.8803733 C52.6461631,18.9329624 51.8142057,19.8630956 51.4906373,20.6713051 C51.3444755,21.0386731 51.2237331,21.5412751 51.1284102,22.1796436 C50.902283,23.6927737 52.0657523,25.0594891 53.5877418,25.0594891 L53.7084841,25.0594891 C54.8888997,25.0594891 55.871785,24.2166724 56.143985,23.0618591 C56.16252,22.9830614 56.1826437,22.9095878 56.2038266,22.8419708 C56.4410748,22.0901974 56.9176894,21.4321296 57.6400254,20.8682996 L58.9613071,19.8348774 C60.3037716,18.7822883 61.2103986,17.9181749 61.6838358,17.2414724 C62.4909033,16.1265904 62.8960257,14.7545509 62.8960257,13.1258861 C62.8960257,10.4696558 61.9645089,8.46510442 60.1014752,7.11223188 L60.1014752,7.11223188 Z M64.3208533,31.534246 L64.207359,31.4813227 C63.3016548,31.0589859 62.2233718,31.4549919 61.7987656,32.3655627 C61.3741594,33.2761336 61.7640589,34.3563708 62.6697632,34.7787076 L62.7832575,34.8316309 C63.6889617,35.2539677 64.7674155,34.8584349 65.1920217,33.947864 C65.6166278,33.0372932 65.2265575,31.9565828 64.3208533,31.534246 L64.3208533,31.534246 Z M74.0228017,20.9011494 C72.6532779,18.4314449 69.4726189,16.6358181 66.6407686,17.0141644 C65.4752552,17.1699755 64.4578029,17.7041416 63.5884119,18.6166627 C62.7491952,19.4972115 63.0484064,20.9507255 64.1454113,21.4622673 C64.828628,21.7808564 65.659375,21.6680663 66.1861358,21.1234949 C66.3967235,20.9060842 66.6389399,20.7081446 66.9124835,20.5303225 C67.9934247,19.8297849 69.6741408,20.3612643 70.3436157,21.3959627 C71.1708043,22.6749953 70.6218212,24.3307586 69.3632872,25.0763798 C69.0832435,25.2421198 68.7593645,25.3642009 68.3929365,25.4432228 L67.2633776,25.7082789 C66.1500257,25.9671189 65.3816024,26.2962904 64.9563495,26.695367 C64.7636081,26.8770244 64.5480139,27.1479815 64.3094163,27.5085615 C63.7437555,28.3631957 64.0631975,29.5223399 64.9872281,29.9532224 L65.0605332,29.9874052 C65.7771873,30.3215865 66.6125223,30.088155 67.1047135,29.4641056 C67.1382745,29.4215133 67.1712928,29.3826031 67.203296,29.3475484 C67.5601648,28.9582977 68.0358294,28.6937033 68.6339971,28.5558875 L69.7287406,28.3025373 C70.841771,28.0435473 71.6368372,27.7755971 72.1158482,27.4987897 C72.9214636,27.050407 73.5558526,26.3321062 74.0169354,25.3433109 C74.7689269,23.7306599 74.7708823,22.2499394 74.0228017,20.9011494 L74.0228017,20.9011494 Z M44.1163037,29.6909727 L44.0613668,29.7459096 C43.6229604,30.184316 43.625026,30.8969827 44.065788,31.3377447 C44.5065501,31.7785068 45.2190603,31.7804159 45.6574667,31.3420096 L45.7124037,31.2870726 C46.15081,30.8486663 46.1490565,30.1360004 45.7082945,29.6952383 C45.2675324,29.2544763 44.5547101,29.2525663 44.1163037,29.6909727 L44.1163037,29.6909727 Z M40.0048243,21.764792 C38.2743873,22.0391653 36.5526243,23.5124617 36.1722981,25.2437072 C36.0158209,25.9562612 36.1113414,26.6627804 36.4588598,27.3632649 C36.7941413,28.0393735 37.7050276,28.1733608 38.2360331,27.6423553 C38.5667443,27.3116441 38.6772673,26.803387 38.4715587,26.3807319 C38.3894942,26.2118265 38.3254927,26.0286132 38.279867,25.8314051 C38.1008242,25.0525689 38.7673132,24.1854917 39.5125986,24.014746 C40.4337963,23.8038996 41.2826119,24.4752984 41.4502543,25.3672373 C41.4874567,25.5656712 41.4899046,25.7803968 41.4582205,26.0107915 L41.3730621,26.7255652 C41.2877189,27.4295713 41.3165705,27.9474086 41.4589952,28.2800117 C41.5240025,28.4309262 41.6362222,28.6141125 41.7958106,28.8297273 C42.1740307,29.3408545 42.917593,29.4005837 43.3648702,28.9533066 L43.4003536,28.9178232 C43.7472502,28.5709266 43.7884131,28.0343954 43.5290336,27.6150295 C43.5113238,27.5864256 43.4956455,27.5589196 43.4819996,27.5328233 C43.3307926,27.242173 43.2774678,26.9087163 43.324049,26.5307421 L43.4086442,25.8387496 C43.4938318,25.1348992 43.5063255,24.6145199 43.4465906,24.2765207 C43.3561311,23.7117045 43.0719767,23.1894381 42.5933502,22.7108115 C41.812746,21.9302074 40.9499041,21.6148676 40.0048243,21.764792 L40.0048243,21.764792 L40.0048243,21.764792 Z" fill="#000000" sketch:type="MSShapeGroup"></path></g></svg>